<?xml version="1.0" encoding="UTF-8" standalone="yes"?>
<svg version="1.2" width="280.000000pt" height="280.000000pt" viewBox="0 0 280.000000 280.000000" preserveAspectRatio="xMidYMid meet" baseProfile="tiny-ps" xmlns="http://www.w3.org/2000/svg">
  <title>bimi-svg-tiny-12-ps</title>
  <g transform="translate(0.000000,280.000000) scale(0.100000,-0.100000)" fill="#000000" stroke="none">
    <path d="M1195 2785 c-627 -102 -1091 -569 -1186 -1195 -17 -109 -6 -383 19&#xA;-490 112 -479 448 -858 905 -1019 164 -58 272 -75 467 -75 143 0 194 4 277 22&#xA;562 122 977 533 1099 1092 26 119 27 438 1 557 -120 556 -540 975 -1095 1093&#xA;-129 28 -363 35 -487 15z m465 -65 c515 -104 921 -488 1050 -993 32 -129 43&#xA;-241 37 -387 -16 -347 -148 -643 -396 -890 -198 -196 -416 -313 -694 -371&#xA;-143 -30 -371 -30 -514 0 -364 76 -667 279 -867 579 -142 214 -211 425 -223&#xA;682 -17 400 134 771 428 1043 318 296 757 421 1179 337z"/>
    <path d="M1260 2659 c-397 -45 -748 -272 -952 -615 -297 -501 -212 -1139 206&#xA;-1549 344 -337 842 -448 1306 -290 274 93 519 295 672 551 234 395 234 893 0&#xA;1288 -208 349 -554 570 -964 615 -109 12 -159 12 -268 0z m-90 -521 l0 -103&#xA;-55 3 -55 4 0 -191 0 -191 65 0 65 0 0 55 0 55 -45 0 -45 0 0 100 0 100 215 0&#xA;215 0 0 -100 0 -100 -51 0 -50 0 3 -52 3 -53 63 -3 62 -3 0 191 0 191 -52 -2&#xA;-53 -3 -3 102 -3 102 233 -2 233 -3 3 -97 3 -98 -33 -1 c-18 -1 -44 -2 -58 -2&#xA;l-25 -2 -3 -492 -2 -493 60 0 60 0 0 -100 0 -100 -235 0 -235 0 0 100 0 100&#xA;55 0 55 0 0 205 0 205 -65 0 -65 0 2 -347 3 -348 220 0 220 0 3 38 3 37 110 0&#xA;109 0 -3 -138 -2 -137 -508 -3 -507 -2 0 100 0 100 55 0 55 0 0 350 0 350 -65&#xA;0 -65 0 0 -205 0 -205 55 0 55 0 0 -100 0 -100 -230 0 -229 0 -6 33 c-3 17 -5&#xA;61 -3 97 l3 65 58 3 57 3 -2 492 -3 492 -55 1 -55 1 0 94 c-1 52 1 97 3 102 2&#xA;4 106 7 233 7 l229 0 0 -102z"/>
    <path d="M734 2196 c-3 -7 -4 -40 -2 -72 l3 -59 58 -3 57 -3 0 -519 0 -520&#xA;-60 0 -60 0 0 -70 0 -70 205 0 205 0 0 70 0 70 -55 0 -55 0 0 235 0 235 95 0&#xA;95 0 0 -375 0 -375 -55 0 -55 0 0 -75 0 -75 478 2 477 3 3 108 3 107 -86 0&#xA;-85 0 0 -35 0 -35 -245 0 -245 0 0 375 0 375 90 0 90 0 0 -235 0 -235 -55 0&#xA;-55 0 0 -70 0 -70 205 0 205 0 0 70 0 70 -60 0 -60 0 0 520 0 519 58 3 57 3 3&#xA;73 3 72 -206 0 -205 0 0 -75 0 -75 55 0 55 0 -2 -212 -3 -212 -87 0 -88 -1 0&#xA;82 0 83 45 0 45 0 0 70 0 70 -185 0 -185 0 0 -70 0 -70 45 0 46 0 -3 -82 -3&#xA;-83 -90 0 -90 0 -3 213 -2 212 55 0 55 0 0 75 0 75 -200 0 c-160 0 -202 -3&#xA;-206 -14z"/>
  </g>
</svg>